<?xml version="1.0" encoding="UTF-8" standalone="no"?>
<!-- Created with Inkscape (http://www.inkscape.org/) -->

<svg
   xmlns:dc="http://purl.org/dc/elements/1.1/"
   xmlns:cc="http://creativecommons.org/ns#"
   xmlns:rdf="http://www.w3.org/1999/02/22-rdf-syntax-ns#"
   xmlns:svg="http://www.w3.org/2000/svg"
   xmlns="http://www.w3.org/2000/svg"
   xmlns:sodipodi="http://sodipodi.sourceforge.net/DTD/sodipodi-0.dtd"
   xmlns:inkscape="http://www.inkscape.org/namespaces/inkscape"
   width="1052.3622"
   height="744.09448"
   id="svg2"
   version="1.1"
   inkscape:version="0.48.0 r9654"
   sodipodi:docname="favicon.svg">
  <defs
     id="defs4">
    <filter
       inkscape:collect="always"
       id="filter4030">
      <feGaussianBlur
         inkscape:collect="always"
         stdDeviation="7.4618617"
         id="feGaussianBlur4032" />
    </filter>
  </defs>
  <sodipodi:namedview
     id="base"
     pagecolor="#ffffff"
     bordercolor="#666666"
     borderopacity="1.0"
     inkscape:pageopacity="0.0"
     inkscape:pageshadow="2"
     inkscape:zoom="0.73837662"
     inkscape:cx="546.00749"
     inkscape:cy="462.14349"
     inkscape:document-units="px"
     inkscape:current-layer="layer1"
     showgrid="false"
     showguides="false"
     inkscape:guide-bbox="true"
     inkscape:window-width="1280"
     inkscape:window-height="976"
     inkscape:window-x="0"
     inkscape:window-y="25"
     inkscape:window-maximized="1">
    <sodipodi:guide
       orientation="1,0"
       position="525.75016,418.49329"
       id="guide3760" />
    <sodipodi:guide
       orientation="1,0"
       position="598.5316,348.5848"
       id="guide3762" />
  </sodipodi:namedview>
  <metadata
     id="metadata7">
    <rdf:RDF>
      <cc:Work
         rdf:about="">
        <dc:format>image/svg+xml</dc:format>
        <dc:type
           rdf:resource="http://purl.org/dc/dcmitype/StillImage" />
        <dc:title></dc:title>
      </cc:Work>
    </rdf:RDF>
  </metadata>
  <g
     inkscape:label="Layer 1"
     inkscape:groupmode="layer"
     id="layer1"
     transform="translate(0,-308.2677)">
    <rect
       style="fill:#2a376a;fill-opacity:1;stroke:none"
       id="rect3753"
       width="486.48648"
       height="486.48648"
       x="320.08765"
       y="409.57446"
       inkscape:export-filename="/home/sque/Projects/wind/templates/basic/images/favicon_256.png"
       inkscape:export-xdpi="47.360001"
       inkscape:export-ydpi="47.360001"
       rx="102.9285"
       ry="102.9285" />
  </g>
  <g
     inkscape:groupmode="layer"
     id="layer2"
     inkscape:label="draw">
    <rect
       style="fill:#eeeeec;fill-opacity:1;stroke:#babdb6;stroke-width:9.19596863;stroke-miterlimit:4;stroke-opacity:1;stroke-dasharray:none"
       id="rect3764"
       width="73.585472"
       height="169.01024"
       x="525.34814"
       y="359.67459"
       inkscape:export-filename="/home/sque/Projects/wind/templates/basic/images/favicon_256.png"
       inkscape:export-xdpi="47.360001"
       inkscape:export-ydpi="47.360001" />
    <rect
       style="fill:#eeeeec;fill-opacity:1;stroke:#babdb6;stroke-width:10;stroke-miterlimit:4;stroke-opacity:1;stroke-dasharray:none"
       id="rect3766"
       width="72.781441"
       height="72.781441"
       x="525.75018"
       y="239.41264"
       inkscape:export-filename="/home/sque/Projects/wind/templates/basic/images/favicon_256.png"
       inkscape:export-xdpi="47.360001"
       inkscape:export-ydpi="47.360001" />
    <g
       id="g3966"
       style="stroke:#ffffff;stroke-opacity:1;stroke-width:20;stroke-miterlimit:4;stroke-dasharray:none;fill:none;filter:url(#filter4030)"
       inkscape:export-filename="/home/sque/Projects/wind/templates/basic/images/favicon_256.png"
       inkscape:export-xdpi="47.360001"
       inkscape:export-ydpi="47.360001">
      <path
         style="fill:none;stroke:#ffffff;stroke-width:20;stroke-miterlimit:4;stroke-opacity:1;stroke-dasharray:none"
         d="M 495.19307 338.36345 C 480.2745 322.15871 471.16406 300.5238 471.16406 276.76102 C 471.16406 251.8161 481.20349 229.21602 497.46226 212.78087 "
         id="path3968" />
      <path
         style="fill:none;stroke:#ffffff;stroke-width:20;stroke-miterlimit:4;stroke-opacity:1;stroke-dasharray:none"
         d="M 626.02608 211.98863 C 642.75102 228.48591 653.11768 251.41283 653.11768 276.76102 L 653.11768 276.76102 L 653.11768 276.76102 C 653.11768 300.9136 643.70589 322.86793 628.34983 339.15651 "
         id="path3970" />
      <path
         style="fill:none;stroke:#ffffff;stroke-width:20;stroke-miterlimit:4;stroke-opacity:1;stroke-dasharray:none"
         d="M 443.78532 353.00164 C 429.68646 330.98976 421.51213 304.81886 421.51213 276.73874 C 421.51213 247.69883 430.25483 220.70087 445.25173 198.23335 "
         id="path3972" />
      <path
         style="fill:none;stroke:#ffffff;stroke-width:20;stroke-miterlimit:4;stroke-opacity:1;stroke-dasharray:none"
         d="M 679.50335 196.11481 C 695.38032 218.9948 704.6849 246.78018 704.6849 276.73874 L 704.6849 276.73874 C 704.6849 305.72121 695.97676 332.66979 681.03422 355.11074 "
         id="path3974" />
      <path
         style="fill:none;stroke:#ffffff;stroke-width:20;stroke-miterlimit:4;stroke-opacity:1;stroke-dasharray:none"
         d="M 399.71318 377.34553 C 381.27195 347.90897 370.61076 313.1012 370.61076 275.80338 C 370.61076 238.22494 381.43297 203.17418 400.13073 173.59774 "
         id="path3976" />
      <path
         style="fill:none;stroke:#ffffff;stroke-width:20;stroke-miterlimit:4;stroke-opacity:1;stroke-dasharray:none"
         d="M 722.51605 171.05611 C 742.21645 201.15742 753.67097 237.14272 753.67097 275.80338 L 753.67097 275.80338 L 753.67097 275.80338 C 753.67097 314.21587 742.36302 349.98726 722.89439 379.97026 "
         id="path3978" />
    </g>
    <g
       id="g4010"
       inkscape:export-filename="/home/sque/Projects/wind/templates/basic/images/favicon_256.png"
       inkscape:export-xdpi="47.360001"
       inkscape:export-ydpi="47.360001">
      <path
         id="path3956"
         d="m 495.19307,338.36345 c -14.91857,-16.20474 -24.02901,-37.83965 -24.02901,-61.60243 0,-24.94492 10.03943,-47.545 26.2982,-63.98015"
         style="fill:none;stroke:#eeeeec;stroke-width:12;stroke-miterlimit:4;stroke-opacity:1;stroke-dasharray:none"
         inkscape:connector-curvature="0" />
      <path
         id="path3935"
         d="m 626.02608,211.98863 c 16.72494,16.49728 27.0916,39.4242 27.0916,64.77239 l 0,0 0,0 c 0,24.15258 -9.41179,46.10691 -24.76785,62.39549"
         style="fill:none;stroke:#eeeeec;stroke-width:12;stroke-miterlimit:4;stroke-opacity:1;stroke-dasharray:none"
         inkscape:connector-curvature="0" />
      <path
         id="path3951"
         d="m 443.78532,353.00164 c -14.09886,-22.01188 -22.27319,-48.18278 -22.27319,-76.2629 0,-29.03991 8.7427,-56.03787 23.7396,-78.50539"
         style="fill:none;stroke:#eeeeec;stroke-width:12.67265606;stroke-miterlimit:4;stroke-opacity:1;stroke-dasharray:none"
         inkscape:connector-curvature="0" />
      <path
         id="path3932"
         d="m 679.50335,196.11481 c 15.87697,22.87999 25.18155,50.66537 25.18155,80.62393 l 0,0 c 0,28.98247 -8.70814,55.93105 -23.65068,78.372"
         style="fill:none;stroke:#eeeeec;stroke-width:12.67265606;stroke-miterlimit:4;stroke-opacity:1;stroke-dasharray:none"
         inkscape:connector-curvature="0" />
      <path
         id="path3946"
         d="m 399.71318,377.34553 c -18.44123,-29.43656 -29.10242,-64.24433 -29.10242,-101.54215 0,-37.57844 10.82221,-72.6292 29.51997,-102.20564"
         style="fill:none;stroke:#eeeeec;stroke-width:12;stroke-miterlimit:4;stroke-opacity:1;stroke-dasharray:none"
         inkscape:connector-curvature="0" />
      <path
         id="path3929"
         d="m 722.51605,171.05611 c 19.7004,30.10131 31.15492,66.08661 31.15492,104.74727 l 0,0 0,0 c 0,38.41249 -11.30795,74.18388 -30.77658,104.16688"
         style="fill:none;stroke:#eeeeec;stroke-width:12;stroke-miterlimit:4;stroke-opacity:1;stroke-dasharray:none"
         inkscape:connector-curvature="0" />
    </g>
  </g>
</svg>
